<?xml version="1.0" standalone="no"?>
<!DOCTYPE svg PUBLIC "-//W3C//DTD SVG 20010904//EN"
 "http://www.w3.org/TR/2001/REC-SVG-20010904/DTD/svg10.dtd">
<svg version="1.0" xmlns="http://www.w3.org/2000/svg"
 width="500.000000pt" height="500.000000pt" viewBox="0 0 500.000000 500.000000"
 preserveAspectRatio="xMidYMid meet">

<g transform="translate(0.000000,500.000000) scale(0.100000,-0.100000)"
fill="#000000" stroke="none">
<path d="M2375 4075 c-111 -18 -148 -28 -152 -42 -3 -8 13 -8 54 2 239 56 540
40 783 -41 110 -37 271 -116 369 -182 107 -72 283 -240 367 -352 79 -104 183
-308 220 -427 15 -48 31 -92 35 -98 17 -18 9 33 -20 117 -74 219 -187 402
-353 574 -218 225 -478 369 -786 435 -128 27 -389 34 -517 14z"/>
<path d="M2643 3750 c-49 -47 -70 -60 -95 -61 -29 -1 -30 -2 -9 -8 24 -6 23
-8 -31 -66 -96 -105 -319 -367 -378 -445 -80 -105 -110 -170 -79 -170 5 0 7 5
4 10 -18 29 151 242 463 588 l75 82 71 2 71 1 -64 6 -64 6 56 52 c31 28 57 54
57 57 0 15 -20 1 -77 -54z"/>
<path d="M2960 3766 c-36 -12 -88 -37 -116 -54 -28 -18 -62 -32 -75 -32 -17 0
-20 -3 -11 -9 9 -5 -2 -19 -40 -49 -29 -22 -66 -54 -81 -70 -16 -16 -59 -42
-98 -57 -75 -31 -89 -45 -19 -20 23 8 45 15 48 15 4 0 -25 -31 -63 -70 -38
-38 -66 -73 -61 -77 4 -4 15 -2 24 5 75 54 99 64 82 33 -26 -50 0 -53 80 -11
68 36 61 39 -12 5 -58 -27 -74 -19 -37 21 27 29 11 32 -47 8 l-39 -16 63 65
c52 52 78 70 145 97 45 18 121 53 168 76 71 35 93 42 123 37 20 -3 36 -9 36
-14 0 -5 7 -6 15 -3 28 11 15 24 -25 24 -22 0 -40 5 -40 10 0 6 4 10 8 10 16
0 92 71 92 86 0 21 -45 17 -120 -10z m100 4 c0 -12 -37 -46 -77 -71 -25 -16
-46 -19 -100 -17 l-68 3 55 29 c96 51 190 79 190 56z m-140 -105 c0 -2 -15
-12 -32 -21 -48 -25 -238 -103 -238 -98 0 6 63 61 109 96 30 23 46 27 99 28
34 0 62 -2 62 -5z"/>
<path d="M2235 3673 c-22 -3 -44 -9 -50 -14 -7 -7 -1 -8 18 -3 16 3 75 10 130
14 101 7 101 7 22 7 -44 0 -98 -2 -120 -4z"/>
<path d="M2770 3439 c-31 -13 -90 -69 -90 -86 0 -7 7 -13 15 -13 19 0 167 61
161 67 -2 2 -33 -8 -69 -22 -37 -15 -72 -25 -79 -22 -8 3 -1 9 16 16 37 15 86
50 86 62 0 11 -8 11 -40 -2z m-4 -24 c-11 -8 -25 -15 -30 -15 -6 1 0 7 14 15
32 19 40 18 16 0z"/>
<path d="M2130 3014 c-70 -30 -102 -80 -102 -156 1 -92 69 -158 162 -158 179
0 229 237 66 311 -49 22 -80 23 -126 3z m133 -84 c57 -63 15 -170 -67 -170
-114 0 -143 161 -36 203 29 12 75 -3 103 -33z"/>
<path d="M2860 3014 c-70 -30 -102 -80 -102 -156 1 -92 69 -158 162 -158 179
0 229 237 66 311 -49 22 -80 23 -126 3z m133 -84 c57 -63 15 -170 -67 -170
-114 0 -143 161 -36 203 29 12 75 -3 103 -33z"/>
<path d="M1430 2860 l0 -160 30 0 30 0 0 65 0 65 60 0 60 0 0 30 0 30 -60 0
-60 0 0 35 0 35 70 0 70 0 0 30 0 30 -100 0 -100 0 0 -160z"/>
<path d="M3500 2859 l0 -161 89 4 c96 3 123 15 165 72 29 38 29 134 0 173 -43
57 -79 73 -170 73 l-84 0 0 -161z m171 88 c37 -28 51 -96 29 -138 -14 -25 -62
-49 -100 -49 l-30 0 0 100 0 100 43 0 c23 0 49 -6 58 -13z"/>
<path d="M2065 2440 c-61 -25 -91 -109 -61 -168 28 -55 109 -79 171 -50 22 10
25 17 25 60 l0 48 -45 0 c-38 0 -45 -3 -45 -20 0 -13 7 -20 20 -20 22 0 27
-25 7 -33 -45 -17 -97 24 -97 75 0 45 33 70 88 67 41 -3 47 -1 50 17 2 15 -4
23 -20 28 -31 8 -69 7 -93 -4z"/>
<path d="M2504 2435 c-4 -8 -4 -51 -2 -96 3 -74 6 -83 31 -105 20 -17 40 -24
68 -24 73 0 105 60 97 185 -3 43 -6 50 -25 53 -22 3 -23 1 -23 -82 0 -80 -2
-87 -25 -102 -23 -15 -27 -15 -50 0 -23 15 -25 22 -25 101 0 79 -1 85 -20 85
-11 0 -23 -7 -26 -15z"/>
<path d="M2990 2441 c0 -6 18 -43 40 -83 26 -48 40 -86 40 -110 0 -34 3 -38
25 -38 23 0 25 4 25 41 0 30 12 62 40 114 22 40 40 75 40 79 0 3 -11 6 -25 6
-20 0 -30 -11 -53 -55 l-28 -56 -27 56 c-22 45 -31 55 -52 55 -14 0 -25 -4
-25 -9z"/>
<path d="M1126 2173 c16 -66 70 -205 111 -288 212 -423 607 -718 1088 -812
128 -25 395 -24 530 1 91 17 126 29 114 40 -2 2 -49 -5 -104 -17 -135 -27
-408 -29 -540 -3 -312 61 -568 197 -791 420 -178 179 -291 362 -365 591 -17
52 -35 95 -40 95 -5 0 -6 -12 -3 -27z"/>
<path d="M1667 1823 c-11 -10 -8 -103 3 -103 6 0 10 9 10 20 0 13 7 20 20 20
11 0 20 5 20 10 0 6 -9 10 -20 10 -11 0 -20 7 -20 15 0 9 9 15 25 15 14 0 25
5 25 10 0 11 -53 14 -63 3z"/>
<path d="M1827 1812 c-43 -47 1 -110 58 -84 31 14 34 61 7 85 -24 22 -45 21
-65 -1z m66 -24 c22 -34 -36 -66 -62 -34 -9 11 -10 20 -1 36 13 25 47 24 63
-2z"/>
<path d="M2012 1814 c-12 -8 -22 -26 -22 -39 0 -52 65 -74 94 -33 21 30 20 44
-4 68 -24 24 -38 25 -68 4z m58 -19 c20 -25 8 -50 -25 -50 -31 0 -43 20 -31
51 7 18 40 18 56 -1z"/>
<path d="M2180 1775 c0 -54 1 -55 28 -55 31 0 62 27 62 53 0 25 -36 57 -65 57
-24 0 -25 -3 -25 -55z m63 14 c14 -22 2 -49 -23 -49 -16 0 -20 6 -20 36 0 28
4 35 16 32 9 -2 21 -10 27 -19z"/>
<path d="M2456 1808 c3 -12 13 -37 21 -57 l15 -36 12 30 13 30 15 -29 15 -29
18 52 c9 29 14 55 11 58 -5 5 -14 -13 -28 -57 -3 -9 -10 0 -17 23 -7 20 -17
37 -21 37 -5 0 -7 -6 -4 -13 2 -7 1 -24 -4 -37 -9 -24 -9 -23 -21 13 -7 20
-17 37 -22 37 -6 0 -7 -9 -3 -22z"/>
<path d="M2667 1823 c-4 -3 -7 -28 -7 -55 l0 -48 41 0 c24 0 38 4 34 10 -3 6
-18 10 -31 10 -32 0 -27 22 7 31 24 7 24 7 -3 8 -40 1 -37 31 3 31 17 0 28 4
24 10 -7 11 -58 14 -68 3z"/>
<path d="M2820 1775 c0 -50 2 -55 23 -55 34 0 51 15 42 36 -4 11 -7 27 -6 38
3 21 -14 36 -41 36 -15 0 -18 -9 -18 -55z m42 20 c0 -5 -5 -11 -11 -13 -6 -2
-11 4 -11 13 0 9 5 15 11 13 6 -2 11 -8 11 -13z m8 -46 c0 -5 -7 -9 -15 -9 -8
0 -15 7 -15 15 0 9 6 12 15 9 8 -4 15 -10 15 -15z"/>
<path d="M2970 1775 c0 -30 5 -55 10 -55 6 0 10 9 10 19 0 13 8 21 22 23 46 6
29 68 -18 68 -22 0 -24 -4 -24 -55z m48 18 c-5 -25 -28 -28 -28 -4 0 12 6 21
16 21 9 0 14 -7 12 -17z"/>
<path d="M3133 1779 c-20 -53 -21 -81 -2 -46 6 9 16 17 24 17 8 0 18 -8 24
-17 21 -39 20 -2 -2 48 l-23 53 -21 -55z m31 -4 c3 -9 0 -15 -9 -15 -9 0 -12
6 -9 15 4 8 7 15 9 15 2 0 5 -7 9 -15z"/>
<path d="M3296 1814 c-20 -19 -21 -68 -2 -83 24 -20 70 -10 74 17 3 17 -1 22
-20 21 -13 0 -17 -3 -10 -6 20 -8 13 -25 -9 -21 -52 8 -45 68 8 68 14 0 21 4
18 10 -9 15 -42 12 -59 -6z"/>
<path d="M3450 1775 l0 -55 41 0 c24 0 38 4 34 10 -3 6 -17 10 -31 10 -34 0
-31 28 4 33 l27 4 -27 2 c-36 1 -39 31 -3 31 14 0 25 5 25 10 0 6 -16 10 -35
10 l-35 0 0 -55z"/>
<path d="M2190 1565 c0 -32 2 -35 28 -34 23 2 24 2 5 6 -13 2 -23 8 -23 13 0
5 10 11 23 13 l22 4 -22 2 c-13 0 -23 5 -23 10 0 5 10 12 23 14 19 4 18 4 -5
6 -26 1 -28 -2 -28 -34z"/>
<path d="M2300 1586 c0 -7 7 -20 16 -27 14 -12 14 -14 -3 -20 -16 -7 -16 -8
-1 -8 25 -1 34 20 15 34 -22 16 -21 22 1 28 13 4 11 5 -5 6 -14 1 -23 -5 -23
-13z"/>
<path d="M2397 1592 c6 -4 13 -21 15 -37 3 -29 4 -29 9 8 4 32 2 37 -16 37
-12 0 -16 -3 -8 -8z"/>
<path d="M2490 1566 c0 -29 4 -36 19 -36 10 0 24 7 32 16 16 20 1 48 -30 52
-18 3 -21 -1 -21 -32z m45 -1 c0 -11 -8 -21 -17 -23 -14 -3 -18 3 -18 23 0 20
4 26 18 23 9 -2 17 -12 17 -23z"/>
<path d="M2670 1573 c0 -15 2 -16 10 -3 5 8 12 11 16 7 4 -4 -1 -16 -11 -27
-18 -19 -17 -20 1 -20 14 0 20 8 21 30 2 24 -2 30 -17 30 -12 0 -20 -7 -20
-17z"/>
<path d="M2764 1575 c-9 -23 4 -47 23 -43 11 2 19 14 21 31 3 22 -1 27 -18 27
-11 0 -23 -7 -26 -15z m36 -15 c0 -11 -4 -20 -9 -20 -14 0 -23 18 -16 30 10
17 25 11 25 -10z"/>
<path d="M2867 1583 c-4 -3 -7 -11 -7 -17 0 -6 4 -4 10 4 5 8 12 11 17 7 4 -4
2 -17 -5 -27 -11 -18 -10 -20 10 -19 13 0 17 3 11 6 -9 3 -10 10 -3 22 13 25
-13 44 -33 24z"/>
<path d="M2971 1569 c9 -17 8 -23 -2 -30 -11 -7 -10 -9 4 -9 13 0 17 7 15 30
-1 17 -8 30 -15 30 -11 0 -11 -5 -2 -21z"/>
</g>
</svg>
