<?xml version="1.0" encoding="utf-8"?>
<!-- Generator: Adobe Illustrator 25.0.0, SVG Export Plug-In . SVG Version: 6.00 Build 0)  -->
<svg version="1.1" id="圖層_1" xmlns="http://www.w3.org/2000/svg" xmlns:xlink="http://www.w3.org/1999/xlink" x="0px" y="0px"
	 viewBox="0 0 85 85" style="enable-background:new 0 0 85 85;" xml:space="preserve">
<style type="text/css">
	.st0{fill:#FFAA78;}
</style>
<g>
	<path class="st0" d="M84.2,37.7C84.1,52,76.3,65.9,61.5,71.4C49.4,76,37,79.2,24.2,81.1c-5.7,0.8-11.3,1.8-17,2.7
		c-0.5,0.1-1,0.2-1.5,0.2c-3.9,0.4-5.3-1-4.8-4.8C2,72,3.1,64.7,4.4,57.4c2.1-12.5,5.1-24.7,10.4-36.2c5.6-12.4,15.6-18.8,29-20.1
		c19.8-1.9,36.4,11.8,40.1,31.1C84.2,34,84.1,35.8,84.2,37.7z"/>
</g>
</svg>
